# xmcd CD database file
#
# Track frame offsets:
#	150
#	39969
#	70385
#	111367
#	153678
#	181500
#	222795
#	264981
#
# Disc length: 3829 seconds
#
# Revision: 0
# Processed by: cddbd v1.5.2PL0 Copyright (c) Steve Scherf et al.
# Submitted via: CDex 1.51
#
DISCID=680ef308
DTITLE=Monik Nordine - Not just to but over the moon
DYEAR=1998
DGENRE=Jazz
TTITLE0=fives
TTITLE1=because of you
TTITLE2=not just to but over the moon
TTITLE3=coming home
TTITLE4=how is it
TTITLE5=just for b
TTITLE6=free as a madcap stoner, lord
TTITLE7=mary lou who
EXTD=YEAR: 1998
EXTT0=
EXTT1=
EXTT2=
EXTT3=
EXTT4=
EXTT5=
EXTT6=
EXTT7=
PLAYORDER=
